<svg width="20" height="20" viewBox="0 0 20 20" fill="none" xmlns="http://www.w3.org/2000/svg">
<path d="M15.2444 19.5817C14.8915 19.2879 14.1577 18.2055 13.6159 17.1741C13.0742 16.1427 12.5169 15.3002 12.3776 15.3002C11.4426 15.3002 11.1454 15.7349 11.1454 17.0931C11.1454 18.6223 10.65 19.3209 9.69029 19.144C9.26305 19.066 9.09278 18.6672 8.96894 17.4529C8.81414 15.9748 8.38071 15.3032 7.58505 15.3151C7.41478 15.3151 6.71819 16.2926 6.03708 17.4829C4.92874 19.4198 4.69964 19.6477 3.87302 19.6477C2.52319 19.6477 2.52629 18.8681 3.89469 16.1487L5.07115 13.813L4.38076 13.0994C3.99996 12.7066 3.4303 11.7262 3.11452 10.9196C2.56963 9.52243 2.48294 9.45047 1.27243 9.36052C0.266251 9.28856 0 9.15064 0 8.70389C0 7.89435 1.18265 7.20474 2.56653 7.20474C3.21978 7.20474 4.02472 7.06382 4.35599 6.89292C5.28167 6.41319 5.11449 7.20774 4.12998 7.96931C3.61915 8.36508 3.39625 8.74587 3.54176 8.97674C3.71513 9.24958 3.90088 9.18062 4.22905 8.72488C4.89468 7.8074 5.34669 7.95132 5.1083 9.00372C4.81109 10.308 5.65009 10.1881 6.14854 8.85381C6.69033 7.40863 7.25069 7.48658 7.00611 8.97074C6.85751 9.87923 6.92252 10.1821 7.30642 10.323C8.03397 10.5928 8.35904 10.272 8.35904 9.28556C8.35904 8.79984 8.49836 8.40406 8.66863 8.40406C8.9999 8.40406 9.08039 8.75486 8.99061 9.82826C8.94417 10.3919 9.08968 10.5029 9.88534 10.5029C10.7336 10.5029 10.8358 10.4069 10.8358 9.60338C10.8358 9.10866 10.9751 8.70389 11.1454 8.70389C11.3157 8.70389 11.455 9.03371 11.455 9.43548C11.455 9.83725 11.5819 10.242 11.7367 10.335C12.2754 10.6588 13.0029 10.1341 13.0029 9.42049C13.0029 8.55098 13.5045 8.47303 13.7769 9.30355C14.0772 10.221 14.9008 10.0651 14.7955 9.10866C14.746 8.67391 14.8791 8.25715 15.0927 8.18519C15.3063 8.11323 15.4797 8.26914 15.4797 8.52999C15.4797 8.79084 15.6902 9.00372 15.9441 9.00372C16.4921 9.00372 16.5447 8.65592 16.0648 8.19118C15.4797 7.62451 16.0741 7.20474 17.4549 7.20474C18.4673 7.20474 18.9503 7.38164 19.5075 7.95732C20.3868 8.8628 20.1174 9.2256 18.4673 9.35752C17.3961 9.44447 17.2351 9.56741 16.8729 10.5928C16.6531 11.2195 16.0958 12.2539 15.6407 12.8925L14.811 14.0529L16.0741 16.3795C17.1949 18.4394 17.2939 18.7722 16.9255 19.3089C16.3528 20.1454 15.9874 20.2054 15.2444 19.5817ZM5.84823 16.1367C7.28475 13.5282 7.29403 13.5012 6.65937 13.5012C6.16711 13.5012 3.71513 17.9177 3.71513 18.8052C3.71513 19.6327 4.38695 18.7932 5.84823 16.1367ZM16.1608 18.3734C16.037 18.0856 15.4116 16.8713 14.7738 15.6749C13.6686 13.6001 13.0029 12.9585 13.0029 13.9659C13.0029 14.7305 15.5014 18.8981 15.9627 18.8981C16.2475 18.8981 16.3125 18.7242 16.1608 18.3734ZM10.2166 16.9492C10.2166 16.2086 10.0773 15.6 9.90701 15.6C9.73673 15.6 9.59741 16.2086 9.59741 16.9492C9.59741 17.6898 9.73673 18.2985 9.90701 18.2985C10.0773 18.2985 10.2166 17.6898 10.2166 16.9492ZM11.2785 14.7065C11.8358 14.5026 12.0742 14.1938 12.0742 13.6781C12.0742 12.8655 12.9132 12.4398 13.907 12.7426C14.3404 12.8775 14.715 12.6527 15.3001 11.9121C16.0958 10.8986 16.3218 10.203 15.8512 10.203C15.715 10.203 15.4704 10.329 15.3094 10.4849C14.3094 11.4503 7.27546 11.5403 4.98446 10.6198C3.72751 10.1131 3.54176 10.218 4.0402 11.1505C4.78323 12.5417 5.2631 12.8625 6.33429 12.6946C7.42406 12.5237 7.80487 12.8296 7.86059 13.9149C7.88536 14.3617 8.16399 14.6016 8.82343 14.7365C10.2228 15.0273 10.4209 15.0243 11.2785 14.7065ZM2.47675 8.40406C2.47675 8.23916 2.27552 8.10423 2.03094 8.10423C1.78636 8.10423 1.49844 8.23916 1.39317 8.40406C1.28791 8.56897 1.48915 8.70389 1.83899 8.70389C2.18883 8.70389 2.47675 8.56897 2.47675 8.40406ZM18.4208 8.40406C18.3156 8.23916 18.0277 8.10423 17.7831 8.10423C17.5385 8.10423 17.3373 8.23916 17.3373 8.40406C17.3373 8.56897 17.6252 8.70389 17.975 8.70389C18.3249 8.70389 18.5261 8.56897 18.4208 8.40406ZM8.83581 7.78341C8.16399 7.62151 6.99063 7.01885 6.23213 6.44617C5.47362 5.8735 4.68725 5.40576 4.48602 5.40576C3.68107 5.40576 3.09594 4.30239 3.09594 2.77925C3.09594 1.48698 3.21978 1.15717 3.91017 0.629469C4.91326 -0.1321 7.71818 -0.21905 9.39618 0.458566C10.0061 0.707425 10.9782 0.908311 11.554 0.908311C12.9379 0.908311 14.5416 1.44801 15.4023 2.20058C16.3156 3.00113 16.4147 5.94546 15.5571 6.67105C14.1546 7.85537 11.1763 8.3471 8.83581 7.78341ZM14.4426 6.42818C15.5943 5.59765 15.7986 4.95002 14.8234 5.22287C10.7584 6.36222 9.12064 6.17033 6.05875 4.18545C4.28788 3.0401 3.48293 2.96814 3.8885 3.99356C3.99376 4.26341 4.38385 4.57223 4.74917 4.68017C5.11759 4.78811 5.8699 5.20488 6.42098 5.60365C8.18876 6.88692 9.3033 7.21973 11.5231 7.12379C13.0246 7.06082 13.8358 6.86593 14.4426 6.42818ZM14.4735 4.32038C14.8574 4.08651 15.1701 3.69073 15.1701 3.44487C15.1701 2.77925 13.3156 1.8108 12.037 1.8078C11.4209 1.8078 10.0278 1.52896 8.94108 1.18715C6.92252 0.554512 5.28167 0.569503 4.46125 1.22913C3.75538 1.79881 3.95661 2.22457 5.1888 2.77026C5.82656 3.0521 6.712 3.5708 7.15781 3.9246C7.60673 4.2784 8.44263 4.67717 9.01538 4.8151C10.4055 5.14791 13.6005 4.85707 14.4735 4.32038ZM11.6098 4.34137C11.4395 4.29639 10.907 4.17346 10.4302 4.07152C9.74912 3.9276 9.57884 3.73871 9.65624 3.22C9.73673 2.66232 9.97512 2.54239 11.1732 2.46743C13.198 2.3415 13.9875 3.3969 12.4426 4.16447C12.1547 4.30838 11.7801 4.38634 11.6098 4.34137ZM12.0742 3.30695C12.4333 3.08208 12.3435 3.01612 11.6686 3.01312C11.1671 3.01012 10.8791 3.13305 10.9906 3.30695C11.229 3.67874 11.4797 3.67874 12.0742 3.30695Z" fill="currentColor"/>
</svg>
