<svg width="23" height="23" viewBox="0 0 23 23" fill="none" xmlns="http://www.w3.org/2000/svg">
<path d="M7.16718 22.7039C5.91284 22.2015 5.65353 21.421 5.75304 18.4514C5.85857 15.3442 6.19026 14.6294 7.96925 13.6844C8.72908 13.2807 9.64872 13.1312 11.3795 13.1312C14.0721 13.1312 15.3897 13.6037 16.5687 14.9943C17.2049 15.7449 17.2893 16.0589 17.1024 16.977C16.8431 18.2301 16.8612 19.2199 17.1627 20.3743C17.3376 21.0352 17.2079 21.3522 16.4632 22.0939L15.5465 23L11.681 22.9821C9.55225 22.9701 7.52298 22.8445 7.16718 22.7039ZM15.3294 21.8098C15.8179 21.6273 16.1043 21.2894 16.1043 20.9006C16.1043 20.3025 15.9657 20.2846 11.4127 20.3235C6.81743 20.3623 6.72395 20.3773 6.81441 20.9963C6.8717 21.3731 7.21241 21.7141 7.66169 21.8367C8.82858 22.1567 14.4641 22.1387 15.3294 21.8098ZM15.8028 19.1123C15.8028 18.9269 14.1445 18.8132 11.4307 18.8132C8.71703 18.8132 7.05864 18.9269 7.05864 19.1123C7.05864 19.2977 8.71703 19.4113 11.4307 19.4113C14.1445 19.4113 15.8028 19.2977 15.8028 19.1123ZM9.62159 17.614C9.72712 17.4495 9.59144 17.2312 9.3261 17.1296C8.75019 16.9082 8.42756 17.1505 8.70497 17.5961C8.95523 17.9998 9.37735 18.0058 9.62159 17.614ZM11.883 17.617C11.883 17.4525 11.681 17.318 11.4307 17.318C11.1805 17.318 10.9784 17.4525 10.9784 17.617C10.9784 17.7815 11.1805 17.9161 11.4307 17.9161C11.681 17.9161 11.883 17.7815 11.883 17.617ZM14.1324 17.6379C14.3555 17.2791 13.7886 16.9262 13.3846 17.1714C13.0499 17.3778 13.27 17.9161 13.6922 17.9161C13.8399 17.9161 14.0359 17.7905 14.1324 17.6379ZM16.1043 17.617C16.1043 17.4525 15.9687 17.318 15.8028 17.318C15.637 17.318 15.5013 17.4525 15.5013 17.617C15.5013 17.7815 15.637 17.9161 15.8028 17.9161C15.9687 17.9161 16.1043 17.7815 16.1043 17.617ZM15.8782 16.1397C16.4149 16.0978 16.0169 15.6014 14.8379 14.8418C13.7464 14.142 13.261 14.0283 11.3222 14.0283C9.37735 14.0283 8.94015 14.13 8.06573 14.7909C6.80235 15.7479 6.79632 16.0589 8.03859 16.1786C8.81351 16.2503 14.8591 16.2234 15.8782 16.1397ZM1.81212 19.6356C1.72468 18.7714 1.57392 16.7856 1.48045 15.2246C1.1548 9.85055 1.01007 9.0102 0.3829 8.84572C-0.162858 8.70517 -0.150779 8.62741 0.584939 7.25176C1.33272 5.85218 1.40809 5.79835 2.92777 5.65481L4.49568 5.50528L4.57107 3.71095C4.61027 2.72407 4.72183 1.47103 4.81229 0.926745C4.9721 -0.0063065 5.04447 -0.0571458 6.09679 0.0295801L7.2094 0.122287L7.36016 2.81378L7.51093 5.50528L9.17836 5.592C10.8458 5.68172 10.8488 5.68172 11.5182 7.08728C12.3323 8.79488 12.3323 8.83675 11.5996 9.02516C11.1383 9.14478 10.9935 9.48869 10.9212 10.6311C10.8548 11.6838 10.704 12.0845 10.3754 12.0845C10.0166 12.0845 9.94424 11.7555 10.0257 10.5055L10.1312 8.92647L6.10583 9.0102L2.08349 9.09394L2.20109 11.1873C2.26441 12.3387 2.4001 14.8298 2.50262 16.7198L2.68655 20.159L3.81726 20.2517C4.55599 20.3115 4.94797 20.4939 4.94797 20.775C4.94797 21.092 4.55298 21.2057 3.46146 21.2057H1.97496L1.81212 19.6356ZM10.3211 7.37437C10.2277 6.71346 10.1523 6.7015 6.00331 6.7015C1.85435 6.7015 1.77896 6.71346 1.68549 7.37437C1.589 8.04725 1.59805 8.04725 6.00331 8.04725C10.4086 8.04725 10.4176 8.04725 10.3211 7.37437ZM6.4556 3.09489C6.4556 1.81195 6.32895 0.869925 6.15407 0.869925C5.98823 0.869925 5.84952 0.971604 5.84349 1.09422C5.84048 1.21683 5.7832 2.19175 5.71988 3.25938C5.59927 5.28398 5.70179 5.7834 6.17518 5.49332C6.32896 5.39762 6.4556 4.31803 6.4556 3.09489ZM18.215 20.7571C18.215 20.4192 18.5829 20.3085 19.7045 20.3085C20.5247 20.3085 21.2634 20.2008 21.3448 20.0663C21.4293 19.9347 21.5921 18.4544 21.7067 16.7767L21.9207 13.7293L21.0102 14.0463C19.9156 14.4231 16.7013 14.3005 16.6983 13.8788C16.6953 13.7143 17.5456 13.514 18.5859 13.4302C19.6261 13.3465 20.6453 13.1731 20.8533 13.0385C21.3117 12.7454 21.381 8.94441 20.9287 8.94441C20.7599 8.94441 20.6272 9.74289 20.6272 10.7387C20.6272 12.1353 20.5277 12.5331 20.1749 12.5331C19.8613 12.5331 19.7226 12.2191 19.7226 11.5043C19.7226 10.1616 19.1859 9.83859 19.0623 11.1066C19.002 11.7346 18.806 12.0845 18.5165 12.0845C18.1849 12.0845 18.0401 11.6718 17.9738 10.5145C17.8472 8.34929 17.3105 8.53172 17.3105 10.7387C17.3105 12.1353 17.2109 12.5331 16.8582 12.5331C16.5536 12.5331 16.4059 12.231 16.4059 11.612C16.4059 11.0049 16.2762 10.7328 16.029 10.8135C15.8209 10.8823 15.6521 11.3997 15.6521 11.9619C15.6521 12.6676 15.5133 12.9817 15.1998 12.9817C14.8621 12.9817 14.7234 12.551 14.6571 11.2621C14.5455 9.15375 13.9937 8.96535 13.9937 11.0378C13.9937 12.1682 13.8821 12.5331 13.5414 12.5331C12.8841 12.5331 12.8871 8.70517 13.5414 8.45396C14.2409 8.1878 15.5013 8.60349 15.5013 9.09992C15.5013 9.81167 16.3546 9.60831 16.4601 8.87264C16.6169 7.78408 19.1015 7.78707 19.1347 8.87563C19.1497 9.30627 19.2311 9.27935 19.6231 8.72012C20.2292 7.86183 21.6825 7.808 22.1228 8.62442C22.2946 8.94441 22.4363 9.87447 22.4363 10.6939C22.4363 11.5821 22.5811 12.231 22.7952 12.3028C23.0756 12.3955 23.0695 13.3016 22.768 16.2892C22.2373 21.5974 22.4454 21.2057 20.1538 21.2057C18.6311 21.2057 18.215 21.11 18.215 20.7571Z" fill="currentColor"/>
</svg>
