<svg width="21" height="20" viewBox="0 0 21 20" fill="none" xmlns="http://www.w3.org/2000/svg">
<path d="M5.25781 19.8249C3.83074 19.6974 3.43462 19.552 2.75918 18.9092C2.31989 18.4884 1.78156 17.7997 1.56319 17.3788C1.34481 16.9579 0.961385 16.4657 0.707459 16.2871C-0.0492398 15.7489 -0.168589 14.346 0.456068 13.2824L0.994391 12.3667L0.484006 11.7137C-0.188897 10.8541 -0.160972 10.0558 0.572874 9.17325C1.00201 8.66056 1.20769 8.03054 1.29149 6.99496C1.52256 4.15859 3.81044 1.70228 6.7382 1.14878C8.82294 0.755971 13.838 0.988084 14.973 1.52883C17.3142 2.64603 19.0181 5.10745 19.0181 7.37501C19.0181 8.17592 19.1653 8.6325 19.5259 8.96154C20.1582 9.53544 20.2166 11.2674 19.6275 11.9229C19.2542 12.3361 19.2542 12.4228 19.6275 12.9559C20.2598 13.864 20.1582 15.629 19.4345 16.3075C19.1044 16.6162 18.7616 17.1059 18.6702 17.3941C18.5813 17.6823 18.1192 18.2971 17.6443 18.7613C16.8952 19.4882 16.5321 19.6285 14.9146 19.8173C12.8578 20.057 7.90372 20.0621 5.25781 19.8249ZM14.5464 18.5598C16.009 18.3965 16.3975 18.2486 16.8952 17.6696C18.2487 16.0882 17.8855 14.6904 16.4128 15.8178C15.3209 16.657 14.4448 16.6646 13.4774 15.8484C13.0635 15.4964 12.642 15.2107 12.5429 15.2107C12.4439 15.2107 12.0224 15.4964 11.6085 15.8484C11.1895 16.2029 10.5319 16.4861 10.1307 16.4861C9.72945 16.4861 9.07178 16.2029 8.6528 15.8484C8.2389 15.4964 7.79199 15.2107 7.66249 15.2107C7.53299 15.2107 7.15717 15.4964 6.82961 15.8484C6.02974 16.7029 4.91247 16.6901 4.00087 15.8152C2.70585 14.568 1.98724 15.7438 3.0131 17.4349C3.28734 17.889 3.77234 18.3175 4.09229 18.3889C5.66663 18.7434 11.9691 18.848 14.5464 18.5598ZM6.18972 14.7057C7.09877 13.8487 8.1424 13.79 9.0413 14.5501C9.47043 14.9148 9.96052 15.2107 10.1307 15.2107C10.3008 15.2107 10.7909 14.9148 11.22 14.5501C12.1189 13.79 13.1625 13.8487 14.0716 14.7057C14.7724 15.3663 15.1051 15.3434 16.0166 14.5731C16.8901 13.8359 17.4107 13.7772 18.2004 14.3333C18.726 14.7031 18.7641 14.6955 18.7641 14.2185C18.7641 13.9379 18.5102 13.5298 18.2004 13.313C17.7205 12.9738 16.5067 12.9151 10.0621 12.9151H2.49002L1.86536 13.54C0.895366 14.5144 1.08581 15.0934 2.11675 14.3103C2.80743 13.7849 3.32035 13.841 4.31574 14.5501C5.39239 15.3179 5.52697 15.3306 6.18972 14.7057ZM3.7825 10.492C2.53572 9.21661 2.37574 9.16049 1.70792 9.76501C0.633812 10.7445 1.47685 11.6398 3.47271 11.6398H4.90486L3.7825 10.492ZM11.1463 10.747C10.6715 10.2573 10.2195 9.85428 10.1383 9.85428C9.9402 9.85428 8.35317 11.3158 8.35317 11.4969C8.35317 11.576 9.17589 11.6398 10.1814 11.6398H12.0072L11.1463 10.747ZM18.4594 11.3337C19.1171 10.673 18.6448 9.33394 17.7611 9.35179C17.5453 9.35689 16.9308 9.87468 16.3975 10.4996L15.4275 11.6398H16.7911C17.5402 11.6398 18.2918 11.502 18.4594 11.3337ZM7.59139 10.2369L8.4522 9.34414H6.62647C5.62092 9.34414 4.7982 9.43087 4.79566 9.53544C4.79312 9.73695 6.34715 11.1118 6.58837 11.122C6.66709 11.1271 7.11655 10.7266 7.59139 10.2369ZM14.587 10.4282C15.0695 10.043 15.4631 9.64002 15.4631 9.53544C15.4631 9.43087 14.6632 9.34414 13.6856 9.34414C12.708 9.34414 11.9081 9.44872 11.9081 9.57625C11.9081 9.80071 13.3479 11.1296 13.5917 11.1296C13.6577 11.1296 14.1071 10.8133 14.587 10.4282ZM17.7002 7.26023C17.8094 6.31647 16.6591 4.15094 15.6332 3.36533C14.488 2.48789 14.1935 2.5389 14.1935 3.60509C14.1935 4.32183 14.0944 4.49783 13.6958 4.49783C13.3327 4.49783 13.1244 4.23001 12.9314 3.50561C12.7055 2.65879 12.5455 2.49554 11.8421 2.38841C10.7426 2.22007 10.6385 2.31699 10.6385 3.51072C10.6385 4.42641 10.5776 4.52589 10.0672 4.45192C9.60756 4.3856 9.4806 4.18155 9.41712 3.41379C9.37395 2.88835 9.23175 2.44453 9.09971 2.42922C7.72851 2.26598 7.50759 2.42667 7.22066 3.79639C7.11909 4.27592 6.91595 4.49783 6.57061 4.49783C6.16433 4.49783 6.06783 4.32438 6.06783 3.60509C6.06783 2.49809 5.71487 2.47003 4.49857 3.47756C3.10198 4.63302 2.03295 7.24747 2.68554 7.903C2.78203 7.99738 6.17956 8.04584 10.2398 8.00758L17.6215 7.94126L17.7002 7.26023Z" fill="currentColor"/>
</svg>
