<svg width="17" height="20" viewBox="0 0 17 20" fill="none" xmlns="http://www.w3.org/2000/svg">
<path d="M1.96402 19.433C1.08114 19.1301 0.233583 18.6697 0.0776077 18.4132C-0.116626 18.0918 0.0511226 16.8866 0.61028 14.5813C1.5167 10.8515 1.87573 9.95839 2.84102 9.05296C3.60618 8.33294 4.59795 6.07091 4.59795 5.04805C4.59795 3.86759 5.30131 3.49058 6.69626 3.92939C7.87343 4.30022 7.89108 4.32494 7.69979 5.44359C7.29661 7.76743 7.20539 10.0944 7.49379 10.6568C7.69686 11.0585 7.67037 11.8094 7.40256 13.0826C6.81398 15.8916 6.03408 18.8798 5.73096 19.4824C5.3837 20.1746 4.07999 20.1592 1.96402 19.433ZM4.82455 18.7315C4.66563 18.2309 1.12233 17.2049 0.892777 17.5974C0.636742 18.03 0.816282 18.1474 2.42901 18.6079C4.30071 19.1456 4.96875 19.1796 4.82455 18.7315ZM5.83104 15.7402C6.71097 12.8972 6.69332 12.8261 5.03939 12.2451C2.49081 11.3521 2.38191 11.4015 1.76095 13.7655C1.46078 14.912 1.21357 15.9781 1.21357 16.1357C1.21357 16.4231 4.50672 17.5232 5.03939 17.412C5.20125 17.378 5.55734 16.6271 5.83104 15.7402ZM6.65799 11.2377C6.65799 10.9967 6.43728 10.5641 6.16359 10.2798C5.76923 9.86259 5.73981 9.64937 6.01644 9.17966C6.20773 8.85828 6.3637 8.37929 6.3637 8.11045C6.3637 7.31008 4.82455 7.67473 4.40077 8.57398C4.20359 8.99116 3.73861 9.57211 3.3678 9.86568C2.54378 10.5208 2.67032 10.6722 4.48906 11.1914C6.4255 11.7476 6.65799 11.7507 6.65799 11.2377ZM6.60208 5.96893C6.88166 5.32308 6.84928 5.15311 6.39313 4.89663C5.71037 4.51344 5.48083 4.75448 5.48083 5.86077C5.48083 6.95471 6.14593 7.0196 6.60208 5.96893ZM11.4285 19.6369C10.837 18.886 9.51264 13.3762 9.5509 11.8341C9.65096 8.02701 9.58032 6.53444 9.26837 5.90712C8.77396 4.91208 9.12711 4.34348 10.5044 3.91085C11.6139 3.56166 11.7728 3.5802 12.1377 4.10862C12.3614 4.42692 12.5439 4.99551 12.5439 5.36634C12.5439 6.4819 13.4326 8.37311 14.445 9.40833C15.0836 10.0635 15.4986 10.8731 15.7075 11.8805C15.8753 12.7056 16.2873 14.3527 16.6169 15.5424C17.3791 18.2865 17.1348 18.7902 14.6804 19.5133C12.6057 20.1252 11.8346 20.153 11.4285 19.6369ZM14.4862 18.611C15.3632 18.3421 16.0754 17.9435 16.0754 17.721C16.0754 17.3996 15.6634 17.4274 14.1036 17.8539C13.0177 18.1505 12.0789 18.5523 12.0171 18.7439C11.864 19.2259 12.6027 19.1858 14.4862 18.611ZM14.0153 16.9021C14.7422 16.692 15.4574 16.4138 15.5986 16.284C15.9518 15.9627 14.8953 11.967 14.4038 11.7693C13.8947 11.5653 10.4838 12.6407 10.4838 13.0053C10.4838 13.4102 11.3902 17.0319 11.5639 17.3285C11.6463 17.4645 11.9317 17.5109 12.1995 17.4274C12.4703 17.3471 13.2884 17.1091 14.0153 16.9021ZM12.4261 11.1945C14.1389 10.6722 14.3302 10.4003 13.4473 9.75135C13.1354 9.52267 12.7175 8.96025 12.5174 8.49981C12.2672 7.91885 11.9317 7.66236 11.4285 7.66236C10.7516 7.66236 10.7134 7.73962 10.887 8.86137C11.0194 9.73281 10.9488 10.1685 10.628 10.4466C10.1159 10.8916 10.0424 11.6796 10.5132 11.6796C10.6898 11.6796 11.5491 11.4602 12.4261 11.1945ZM11.5462 6.24705C11.4461 5.9782 11.3667 5.5054 11.3667 5.19329C11.3667 4.78229 11.2078 4.67413 10.7781 4.79156C9.81282 5.05732 10.1218 6.7353 11.1342 6.7353C11.5521 6.7353 11.6727 6.59315 11.5462 6.24705ZM6.21067 1.76625C6.10178 1.41396 6.09001 1.04623 6.18125 0.95043C6.42845 0.693943 7.24658 1.48813 7.24658 1.98256C7.24658 2.65314 6.4255 2.48008 6.21067 1.76625ZM9.60092 2.25759C9.60092 1.82187 10.2278 0.863905 10.5132 0.863905C11.0312 0.863905 10.6633 2.24214 10.1159 2.3503C9.83342 2.40901 9.60092 2.36575 9.60092 2.25759ZM8.12946 0.863905C8.12946 0.218051 8.25601 -0.0693382 8.49733 0.0140974C8.70039 0.0851722 8.8652 0.468358 8.8652 0.863905C8.8652 1.25945 8.70039 1.64264 8.49733 1.71371C8.25601 1.79715 8.12946 1.50976 8.12946 0.863905ZM2.90281 15.6475C1.87867 14.5721 2.94989 12.6191 4.31541 13.0733C4.99817 13.302 5.39547 14.6617 4.98052 15.357C4.60677 15.9812 3.38545 16.1543 2.90281 15.6475ZM4.30365 14.6153C4.30365 14.3619 4.10647 14.1518 3.86221 14.1518C3.61794 14.1518 3.42077 14.3619 3.42077 14.6153C3.42077 14.8687 3.61794 15.0789 3.86221 15.0789C4.10647 15.0789 4.30365 14.8687 4.30365 14.6153ZM4.59795 9.51649C4.59795 9.34653 4.80394 9.20747 5.05703 9.20747C5.31013 9.20747 5.43373 9.34653 5.33367 9.51649C5.23361 9.68645 5.02762 9.82551 4.87458 9.82551C4.72155 9.82551 4.59795 9.68645 4.59795 9.51649ZM12.1083 15.5053C11.4432 14.8038 11.661 13.7964 12.5968 13.2464C13.3178 12.823 13.4385 12.8323 13.9947 13.3607C14.7216 14.0498 14.7746 14.8533 14.1419 15.5208C13.5444 16.145 12.7116 16.1388 12.1083 15.5053ZM13.5886 14.742C13.8917 14.2291 13.2119 13.6357 12.8058 14.0622C12.4644 14.4207 12.6792 15.0789 13.1324 15.0789C13.2766 15.0789 13.4797 14.9274 13.5886 14.742ZM11.661 9.51649C11.661 9.34653 11.867 9.20747 12.1201 9.20747C12.3732 9.20747 12.4968 9.34653 12.3967 9.51649C12.2966 9.68645 12.0907 9.82551 11.9376 9.82551C11.7846 9.82551 11.661 9.68645 11.661 9.51649Z" fill="currentColor"/>
</svg>
